<svg width="76" height="76" viewBox="0 0 76 76" fill="none" xmlns="http://www.w3.org/2000/svg">
<g filter="url(#filter0_d_164_472)">
<rect x="10" y="10" width="56" height="56" rx="8" fill="white"/>
<path d="M25.5555 45.1555V49.5111C25.5555 50.171 25.818 50.8041 26.2847 51.2708C26.7514 51.7375 27.3846 52 28.0444 52H47.9556C48.6155 52 49.2486 51.7375 49.7153 51.2708C50.1819 50.8041 50.4445 50.1709 50.4445 49.5111V45.1555H25.5555ZM44.2222 47.9555H31.7778C31.4338 47.9555 31.1555 47.6772 31.1555 47.3333C31.1555 46.9894 31.4338 46.7111 31.7778 46.7111H44.2222C44.5662 46.7111 44.8445 46.9894 44.8445 47.3333C44.8445 47.6772 44.5662 47.9555 44.2222 47.9555Z" fill="#1076BC"/>
<path d="M25.2444 41.1111H50.7556C51.4434 41.1111 52 41.799 52 42.3556V42.9778C52 43.6656 51.4434 44.2222 50.7556 44.2222H25.2444C24.5566 44.2222 24 43.5344 24 42.9778V42.3556C24 41.6677 24.5566 41.1111 25.2444 41.1111Z" fill="#1076BC"/>
<path d="M24 30.2222H29.6V32.0889C29.6 33.6347 28.3459 34.8889 26.8 34.8889C25.2542 34.8889 24 33.6347 24 32.0889V30.2222Z" fill="#1076BC"/>
<path d="M29.5999 30.2222H35.1999V32.0889C35.1999 33.6347 33.9457 34.8889 32.3999 34.8889C30.854 34.8889 29.5999 33.6347 29.5999 32.0889V30.2222Z" fill="#1076BC"/>
<path d="M40.7999 30.2222H46.3999V32.0889C46.3999 33.6347 45.1458 34.8889 43.5999 34.8889C42.0541 34.8889 40.7999 33.6347 40.7999 32.0889V30.2222Z" fill="#1076BC"/>
<path d="M46.4003 30.2222H52.0003V32.0889C52.0003 33.6347 50.7461 34.8889 49.2003 34.8889C47.6544 34.8889 46.4003 33.6347 46.4003 32.0889V30.2222Z" fill="#1076BC"/>
<path d="M35.2001 30.2222H40.8001V32.0889C40.8001 33.6347 39.5459 34.8889 38.0001 34.8889C36.4542 34.8889 35.2001 33.6347 35.2001 32.0889V30.2222Z" fill="#1076BC"/>
<path d="M51.5336 29.2889H24.4669L26.7662 24.6878C26.9765 24.2661 27.4079 24 27.8794 24H48.1209C48.5925 24 49.0239 24.2661 49.2341 24.6878L51.5336 29.2889Z" fill="#1076BC"/>
<path d="M30.2221 35.1126V40.1779H27.111V35.8223C28.0722 35.7397 28.9643 35.2876 29.5999 34.562C29.7858 34.7686 29.9948 34.9535 30.2221 35.1126Z" fill="#1076BC"/>
<path d="M48.8892 35.8221V40.1777H45.7781V35.1125C46.0066 34.9496 46.2156 34.7601 46.4003 34.5498C47.0335 35.2802 47.9267 35.7359 48.8892 35.8221Z" fill="#1076BC"/>
</g>
<defs>
<filter id="filter0_d_164_472" x="0" y="0" width="76" height="76" filterUnits="userSpaceOnUse" color-interpolation-filters="sRGB">
<feFlood flood-opacity="0" result="BackgroundImageFix"/>
<feColorMatrix in="SourceAlpha" type="matrix" values="0 0 0 0 0 0 0 0 0 0 0 0 0 0 0 0 0 0 127 0" result="hardAlpha"/>
<feOffset/>
<feGaussianBlur stdDeviation="5"/>
<feComposite in2="hardAlpha" operator="out"/>
<feColorMatrix type="matrix" values="0 0 0 0 0 0 0 0 0 0 0 0 0 0 0 0 0 0 0.1 0"/>
<feBlend mode="normal" in2="BackgroundImageFix" result="effect1_dropShadow_164_472"/>
<feBlend mode="normal" in="SourceGraphic" in2="effect1_dropShadow_164_472" result="shape"/>
</filter>
</defs>
</svg>
