<svg width="80" height="80" viewBox="0 0 80 80" fill="none" xmlns="http://www.w3.org/2000/svg">
<rect x="0.625" y="0.625" width="78.75" height="78.75" rx="39.375" fill="white"/>
<rect x="0.625" y="0.625" width="78.75" height="78.75" rx="39.375" stroke="#DDDDDD" stroke-width="1.25"/>
<path d="M45.0428 53.8839H59.3305C59.6589 53.8839 59.9267 53.6162 59.9266 53.2877C59.9266 53.2876 59.9266 53.2876 59.9266 53.2876V19.6695C59.9266 19.341 59.659 19.0733 59.3305 19.0733H20.6695C20.3411 19.0733 20.0734 19.3408 20.0734 19.6695V53.2877C20.0734 53.6161 20.3409 53.8838 20.6695 53.8838H34.9573C35.2858 53.8838 35.5534 53.6162 35.5534 53.2877C35.5534 52.9591 35.2859 52.6915 34.9573 52.6915H21.2657V20.2657H58.7343V52.6916H45.0428C44.7143 52.6916 44.4466 52.9592 44.4466 53.2878C44.4466 53.6162 44.7143 53.8839 45.0428 53.8839Z" fill="#1076BC" stroke="#1076BC" stroke-width="0.52"/>
<path d="M34.371 53.2877C34.371 56.3926 36.8951 58.9166 39.9999 58.9166C43.1048 58.9166 45.6289 56.3926 45.6289 53.2877C45.6289 50.1828 43.1048 47.6587 39.9999 47.6587C36.8951 47.6587 34.371 50.1828 34.371 53.2877ZM35.5433 53.2878C35.5433 50.8288 37.541 48.8312 39.9999 48.8312C42.4589 48.8312 44.4565 50.8288 44.4565 53.2878C44.4565 55.7467 42.4589 57.7444 39.9999 57.7444C37.541 57.7444 35.5433 55.7467 35.5433 53.2878Z" fill="#1076BC" stroke="#1076BC" stroke-width="0.5"/>
<path d="M44.6258 30.1621L40.0002 25.5445L35.3694 30.1753C35.2074 30.3373 34.9505 30.3945 34.73 30.3063L44.6258 30.1621ZM44.6258 30.1621C44.7403 30.2881 44.9033 30.3411 45.0427 30.3411C45.1188 30.3411 45.1923 30.3258 45.2618 30.2979M44.6258 30.1621L45.2618 30.2979M45.2618 30.2979C45.2617 30.2979 45.2616 30.298 45.2614 30.298L45.1686 30.0659L45.2618 30.2979ZM45.2618 30.2979C45.4835 30.209 45.6287 29.9904 45.6287 29.7549V19.6695C45.6287 19.3465 45.3655 19.0833 45.0426 19.0833C44.7197 19.0833 44.4564 19.3464 44.4564 19.6695V28.3361L40.4119 24.2916C40.1799 24.0596 39.8114 24.0596 39.5794 24.2916L39.7561 24.4684M45.2618 30.2979L39.7561 24.4684M39.7561 24.4684L39.5794 24.2916L35.535 28.3361V19.6695C35.535 19.3465 35.2718 19.0833 34.9488 19.0833C34.6259 19.0833 34.3627 19.3464 34.3627 19.6695V29.7632C34.3627 29.9987 34.5078 30.2175 34.7299 30.3063L39.7561 24.4684Z" fill="#1076BC" stroke="#1076BC" stroke-width="0.5"/>
<path d="M42.1097 52.0188C42.3418 51.7868 42.3418 51.4184 42.1097 51.1863C42.1097 51.1863 42.1097 51.1862 42.1097 51.1862C42.1097 51.1862 42.1097 51.1862 42.1096 51.1862C41.8776 50.9541 41.5092 50.9542 41.2772 51.1862C41.2772 51.1862 41.2772 51.1862 41.2772 51.1862L39.1679 53.2954L38.7396 52.8671C38.5075 52.635 38.139 52.635 37.907 52.8671C37.6749 53.0992 37.6749 53.4676 37.907 53.6997L38.7474 54.5401C38.86 54.6528 39.0071 54.7143 39.1595 54.7143C39.3145 54.7143 39.4521 54.6514 39.5681 54.5584L39.5788 54.5498L42.1097 52.0188ZM42.1097 52.0188L41.9329 51.842L42.1096 52.0189C42.1097 52.0189 42.1097 52.0188 42.1097 52.0188Z" fill="#1076BC" stroke="#1076BC" stroke-width="0.5"/>
</svg>
