<svg width="18" height="19" viewBox="0 0 18 19" fill="none" xmlns="http://www.w3.org/2000/svg">
<path fill-rule="evenodd" clip-rule="evenodd" d="M4.6 1.9C4.6 1.67909 4.42091 1.5 4.2 1.5C3.97909 1.5 3.8 1.67909 3.8 1.9V3.1H3C1.89543 3.1 1 3.99543 1 5.1V15.5C1 16.6046 1.89543 17.5 3 17.5H15C16.1046 17.5 17 16.6046 17 15.5V5.1C17 3.99543 16.1046 3.1 15 3.1H14.2V1.9C14.2 1.67909 14.0209 1.5 13.8 1.5C13.5791 1.5 13.4 1.67909 13.4 1.9V3.1H4.6V1.9ZM13.4 5.9V3.9H4.6V5.9C4.6 6.12091 4.42091 6.3 4.2 6.3C3.97909 6.3 3.8 6.12091 3.8 5.9V3.9H3C2.33726 3.9 1.8 4.43726 1.8 5.1V8.3H16.2V5.1C16.2 4.43726 15.6627 3.9 15 3.9H14.2V5.9C14.2 6.12091 14.0209 6.3 13.8 6.3C13.5791 6.3 13.4 6.12091 13.4 5.9ZM16.2 9.1H1.8V15.5C1.8 16.1627 2.33726 16.7 3 16.7H15C15.6627 16.7 16.2 16.1627 16.2 15.5V9.1Z" fill="#317750"/>
</svg>
