<svg width="156" height="150" viewBox="0 0 156 150" fill="none" xmlns="http://www.w3.org/2000/svg">
<path fill-rule="evenodd" clip-rule="evenodd" d="M58.6833 45H97.3167C101.03 45 102.38 45.3867 103.737 46.1133C105.093 46.84 106.16 47.9067 106.887 49.2633C107.613 50.62 108 51.9667 108 55.6833V80.7167L93.3633 67.2067C92.8322 66.7166 92.2011 66.3475 91.5136 66.1248C90.8261 65.9021 90.0985 65.831 89.3809 65.9166C88.6633 66.0021 87.9728 66.2422 87.3569 66.6203C86.741 66.9984 86.2144 67.5055 85.8133 68.1067L75.38 83.7567L67.7033 78.8233C66.6799 78.1658 65.4518 77.9039 64.2492 78.0868C63.0465 78.2696 61.9518 78.8847 61.17 79.8167L48.0167 95.5C48.0057 95.1056 48.0002 94.7112 48 94.3167V55.6833C48 51.9667 48.3867 50.62 49.1133 49.2633C49.84 47.9067 50.9067 46.84 52.2633 46.1133C53.62 45.3867 54.9667 45 58.6833 45ZM90.2733 73.4333L108 89.79V94.3133C108 98.0267 107.613 99.3767 106.887 100.733C106.176 102.075 105.079 103.173 103.737 103.883C102.38 104.61 101.033 104.997 97.3167 104.997H58.6833C54.9667 104.997 53.62 104.61 52.2633 103.883C51.677 103.571 51.1336 103.185 50.6467 102.733L65.3333 85.2233L73.1533 90.25C74.2567 90.959 75.5945 91.206 76.8783 90.9379C78.1622 90.6698 79.2892 89.908 80.0167 88.8167L90.2733 73.4333ZM64.6267 55C60.9267 55 58 57.7733 58 61.6267C58 65.4833 60.93 68.3333 64.6267 68.3333C68.4033 68.3333 71.3333 65.4833 71.3333 61.6267C71.3333 57.7733 68.4033 55 64.6267 55Z" fill="#C3C3C3"/>
</svg>
