<svg width="80" height="80" viewBox="0 0 80 80" fill="none" xmlns="http://www.w3.org/2000/svg">
<circle cx="40" cy="40" r="40" fill="#BF83FF"/>
<path d="M42.2329 17.451L47.7217 29.0818C48.0837 29.8504 48.7861 30.3832 49.5968 30.5079L61.8684 32.3738V32.3715C62.8071 32.5143 63.5854 33.2013 63.878 34.1445C64.1706 35.0877 63.9278 36.1215 63.2472 36.8153L54.368 45.8685C53.7805 46.4648 53.5138 47.3286 53.6526 48.172L55.7488 60.9544V60.9566C55.9092 61.9315 55.5233 62.92 54.7581 63.5027C53.9907 64.0854 52.974 64.1624 52.135 63.6999L41.1598 57.6649H41.1576C40.4336 57.2681 39.5665 57.2681 38.8403 57.6649L27.865 63.6999C27.0261 64.1625 26.0093 64.0854 25.242 63.5027C24.4767 62.92 24.0909 61.9315 24.2513 60.9566L26.3475 48.1743V48.172C26.4862 47.3286 26.2196 46.4648 25.6321 45.8685L16.7529 36.8153C16.0722 36.1215 15.8294 35.0877 16.1221 34.1445C16.4147 33.2013 17.1929 32.5144 18.1316 32.3715L30.4032 30.5056V30.5079C31.2139 30.3832 31.9163 29.8504 32.2783 29.0818L37.7671 17.451C38.1855 16.5623 39.0526 16 39.9999 16C40.9472 16 41.8145 16.5623 42.2329 17.451Z" fill="white"/>
</svg>
