<svg width="80" height="80" viewBox="0 0 80 80" fill="none" xmlns="http://www.w3.org/2000/svg">
<circle cx="40" cy="40" r="40" fill="#D4C744"/>
<path d="M20.8015 16C18.1488 16 16.0001 18.1487 16.0001 20.8013V32.8002C16.0001 35.4506 18.1488 37.5993 20.8015 37.5993H32.8003C35.4508 37.5993 37.5994 35.4506 37.5994 32.8002V20.8013C37.5994 18.1486 35.4507 16 32.8003 16H20.8015Z" fill="white"/>
<path d="M47.1997 16C44.5493 16 42.4006 18.1487 42.4006 20.8013V32.8002C42.4006 35.4506 44.5493 37.5993 47.1997 37.5993H59.1986C61.849 37.5993 63.9999 35.4506 63.9999 32.8002V20.8013C63.9999 18.1486 61.849 16 59.1986 16H47.1997Z" fill="white"/>
<path d="M16 47.1998C16 44.5493 18.1487 42.4007 20.8013 42.4007H32.8002C35.4506 42.4007 37.5993 44.5494 37.5993 47.1998V59.1986C37.5993 61.8513 35.4506 64 32.8002 64H20.8013C18.1486 64 16 61.8513 16 59.1986V47.1998Z" fill="white"/>
<path d="M47.1997 42.4007C44.5493 42.4007 42.4006 44.5494 42.4006 47.1998V59.1986C42.4006 61.8513 44.5493 64 47.1997 64H59.1986C61.849 64 63.9999 61.8513 63.9999 59.1986V47.1998C63.9999 44.5493 61.849 42.4007 59.1986 42.4007H47.1997Z" fill="white"/>
</svg>
