<svg width="80" height="80" viewBox="0 0 80 80" fill="none" xmlns="http://www.w3.org/2000/svg">
<circle cx="40" cy="40" r="40" fill="#FA5A7D"/>
<path d="M51.1431 38.2858C47.7339 38.2858 44.4638 39.6401 42.0512 42.0508C39.6405 44.4637 38.2862 47.7335 38.2862 51.1429C38.2862 54.5523 39.6405 57.8223 42.0512 60.235C44.464 62.6457 47.7338 64 51.1431 64C54.5525 64 57.8225 62.6457 60.235 60.235C62.6457 57.8221 64 54.5523 64 51.1429C64 47.7335 62.6457 44.4635 60.235 42.0508C57.8222 39.6401 54.5525 38.2858 51.1431 38.2858ZM55.7888 55.7886C55.4652 56.11 55.0281 56.2879 54.5717 56.2858C54.1152 56.2879 53.6781 56.11 53.3545 55.7886L50.4402 52.8571C49.7974 52.2164 49.4331 51.3486 49.4288 50.44V46C49.4288 45.0528 50.1959 44.2857 51.1431 44.2857C52.0902 44.2857 52.8573 45.0528 52.8573 46V50.44L55.7888 53.3543C56.1123 53.6757 56.2966 54.115 56.2966 54.5715C56.2966 55.028 56.1124 55.4672 55.7888 55.7886ZM46.0002 28H30.5718V16H46.0002V28ZM60.5712 22.8572V21.1429C60.5712 18.3036 58.2677 16 55.4284 16H49.4282V22.8572H60.5712ZM37.8913 60.5716H21.1431C18.3038 60.5716 16.0003 58.2681 16.0003 55.4287V26.2858H27.1427V28C27.1427 28.9086 27.5049 29.7808 28.1477 30.4236C28.7905 31.0665 29.6627 31.4286 30.5713 31.4286H45.9997C46.9082 31.4286 47.7804 31.0665 48.4232 30.4236C49.0661 29.7808 49.4282 28.9087 49.4282 28V26.2858H60.5707V37.8914C56.3621 34.87 50.9642 34.0343 46.0403 35.6435C41.116 37.2549 37.2544 41.1164 35.6433 46.0406C34.034 50.9649 34.8699 56.363 37.8913 60.5716ZM31.4287 52.0002C31.4287 51.5459 31.2487 51.1087 30.9273 50.7873C30.6058 50.4659 30.1687 50.2859 29.7144 50.2859H24.5716C23.6245 50.2859 22.8574 51.053 22.8574 52.0002C22.8574 52.9474 23.6245 53.7145 24.5716 53.7145H29.7144C30.1687 53.7145 30.6058 53.5345 30.9273 53.2131C31.2487 52.8916 31.4287 52.4544 31.4287 52.0002ZM31.4287 45.143C31.4287 44.6887 31.2487 44.2516 30.9273 43.9301C30.6058 43.6087 30.1687 43.4287 29.7144 43.4287H24.5716C23.6245 43.4287 22.8574 44.1958 22.8574 45.143C22.8574 46.0902 23.6245 46.8573 24.5716 46.8573H29.7144C30.1687 46.8573 30.6058 46.6773 30.9273 46.3559C31.2487 46.0344 31.4287 45.5973 31.4287 45.143ZM27.143 22.8572V16H21.1428C18.3035 16 16 18.3036 16 21.1429V22.8572H27.143Z" fill="white"/>
</svg>
