<svg width="80" height="80" viewBox="0 0 80 80" fill="none" xmlns="http://www.w3.org/2000/svg">
<circle cx="40" cy="40" r="40" fill="#3CD856"/>
<path fill-rule="evenodd" clip-rule="evenodd" d="M28.8343 36.6421C28.8118 36.8408 28.8003 37.0437 28.8003 37.2513V44.4086C28.8003 45.2921 28.0837 46.0087 27.2007 46.0087C26.3177 46.0087 25.6005 45.2921 25.6005 44.4086V37.2513C25.6005 36.435 25.7168 35.6469 25.939 34.9037C25.9927 34.7238 25.9129 34.5355 25.746 34.4495L16.5967 29.7049C16.3552 29.5797 16.0647 29.7341 16.0344 30.0048C16.012 30.2029 16 30.4064 16 30.6134V49.8035C16 51.5977 16.8668 53.1306 18.4482 53.9504L37.1538 63.6503C37.3927 63.7739 37.6331 63.8819 37.8757 63.9742C38.1297 64.0707 38.4004 63.8845 38.4004 63.6128V40.8635C38.4004 40.68 38.2757 40.5251 38.0958 40.4854C37.2826 40.307 36.4778 40.0145 35.6918 39.6066L29.3975 36.3427C29.1555 36.2175 28.8655 36.3719 28.8348 36.6426L28.8343 36.6421ZM41.6002 40.8662V63.6123C41.6002 63.884 41.8709 64.0707 42.1249 63.9737C42.3674 63.8814 42.6078 63.7739 42.8467 63.6498L61.5523 53.9499C63.1337 53.13 64 51.5972 64 49.803V30.616C64 30.409 63.988 30.2056 63.9661 30.0068C63.9353 29.7362 63.6448 29.5818 63.4033 29.7075L44.3092 39.6087C43.5227 40.016 42.7179 40.3091 41.9048 40.4875C41.7248 40.5266 41.6002 40.682 41.6002 40.8662ZM48.6706 19.7437C48.9496 19.8887 48.9496 20.2866 48.6706 20.4311L29.6416 30.3062C28.9219 30.6802 28.2814 31.148 27.7317 31.6941C27.6101 31.8146 27.4323 31.8417 27.2805 31.7629L18.3857 27.1508C18.1066 27.0063 18.1066 26.6084 18.3857 26.4634L37.1538 16.7239C39.0132 15.7585 40.9863 15.759 42.8467 16.7239L48.67 19.7431L48.6706 19.7437ZM61.6117 26.4629C61.8913 26.6079 61.8913 27.0053 61.6117 27.1498L42.8431 36.8914C40.9832 37.8568 39.009 37.8578 37.1501 36.8914L31.1855 33.7902C30.9064 33.6452 30.9059 33.2478 31.1855 33.1028L52.623 21.978C52.7383 21.918 52.864 21.918 52.9793 21.978L61.6117 26.4629Z" fill="white"/>
</svg>
