<svg width="20" height="21" viewBox="0 0 20 21" fill="none" xmlns="http://www.w3.org/2000/svg">
<path d="M15 4.23333C13.6739 2.90725 11.8754 2.16226 10 2.16226C8.12466 2.16226 6.32611 2.90725 5.00002 4.23333C3.67394 5.55941 2.92896 7.35797 2.92896 9.23333C2.92896 11.1087 3.67394 12.9072 5.00002 14.2333L9.39169 18.6333C9.46916 18.7114 9.56133 18.7734 9.66288 18.8157C9.76442 18.858 9.87335 18.8798 9.98336 18.8798C10.0934 18.8798 10.2023 18.858 10.3038 18.8157C10.4054 18.7734 10.4976 18.7114 10.575 18.6333L15 14.1917C16.3206 12.8711 17.0624 11.08 17.0624 9.2125C17.0624 7.34495 16.3206 5.55389 15 4.23333ZM13.8084 13L10 16.825L6.19169 13C5.43931 12.2469 4.92709 11.2877 4.71977 10.2436C4.51245 9.19944 4.61935 8.11729 5.02694 7.1339C5.43454 6.15051 6.12454 5.31004 7.00971 4.71873C7.89489 4.12742 8.93551 3.81181 10 3.81181C11.0645 3.81181 12.1052 4.12742 12.9903 4.71873C13.8755 5.31004 14.5655 6.15051 14.9731 7.1339C15.3807 8.11729 15.4876 9.19944 15.2803 10.2436C15.073 11.2877 14.5607 12.2469 13.8084 13ZM7.50002 6.675C6.82728 7.34981 6.44952 8.2638 6.44952 9.21666C6.44952 10.1695 6.82728 11.0835 7.50002 11.7583C7.99982 12.259 8.63635 12.6009 9.32973 12.7412C10.0231 12.8814 10.7425 12.8138 11.3976 12.5468C12.0527 12.2798 12.6143 11.8252 13.0121 11.2402C13.4098 10.6552 13.626 9.96572 13.6334 9.25833C13.6371 8.786 13.5461 8.31771 13.3658 7.88115C13.1854 7.44459 12.9194 7.04863 12.5834 6.71666C12.2531 6.37881 11.8593 6.10961 11.4245 5.92455C10.9898 5.73949 10.5228 5.64223 10.0504 5.63835C9.57791 5.63448 9.10935 5.72408 8.67167 5.90199C8.23398 6.0799 7.83579 6.34261 7.50002 6.675ZM11.4084 10.575C11.0926 10.8956 10.6752 11.0966 10.2276 11.1435C9.78006 11.1905 9.33008 11.0805 8.95461 10.8324C8.57915 10.5843 8.30152 10.2135 8.1692 9.7834C8.03687 9.35327 8.05806 8.89053 8.22915 8.47429C8.40024 8.05806 8.71061 7.71418 9.10718 7.50144C9.50375 7.28871 9.9619 7.22034 10.4033 7.30801C10.8447 7.39568 11.2419 7.63396 11.5271 7.98211C11.8123 8.33025 11.9677 8.76664 11.9667 9.21666C11.9546 9.73105 11.7388 10.2196 11.3667 10.575H11.4084Z" fill="#1076BC"/>
</svg>
