<svg width="20" height="20" viewBox="0 0 20 20" fill="none" xmlns="http://www.w3.org/2000/svg">
<path d="M13.3101 6.68992C13.2526 6.63244 13.1747 6.60014 13.0933 6.60014C13.012 6.60014 12.9341 6.63244 12.8765 6.68992L6.40636 13.1601C6.37707 13.1884 6.35371 13.2222 6.33764 13.2596C6.32157 13.2971 6.31311 13.3373 6.31276 13.378C6.3124 13.4187 6.32016 13.4591 6.33558 13.4968C6.351 13.5345 6.37377 13.5687 6.40256 13.5975C6.43135 13.6263 6.46559 13.6491 6.50327 13.6645C6.54096 13.6799 6.58134 13.6877 6.62205 13.6873C6.66277 13.687 6.70301 13.6785 6.74042 13.6624C6.77783 13.6464 6.81167 13.623 6.83995 13.5937L13.3101 7.12352C13.3676 7.06601 13.3999 6.98803 13.3999 6.90672C13.3999 6.82541 13.3676 6.74743 13.3101 6.68992Z" fill="#317750" stroke="#317750" stroke-width="0.2"/>
<path d="M7.45157 9.17C7.73528 9.17 8.01263 9.08587 8.24853 8.92825C8.48442 8.77063 8.66828 8.54659 8.77686 8.28447C8.88543 8.02236 8.91384 7.73393 8.85849 7.45567C8.80314 7.17741 8.66652 6.92181 8.4659 6.72119C8.26529 6.52058 8.00969 6.38395 7.73142 6.3286C7.45316 6.27325 7.16474 6.30166 6.90262 6.41024C6.6405 6.51881 6.41647 6.70267 6.25884 6.93857C6.10122 7.17447 6.01709 7.45181 6.01709 7.73552C6.0175 8.11584 6.16876 8.48048 6.43769 8.7494C6.70662 9.01833 7.07125 9.1696 7.45157 9.17ZM7.45157 6.91433C7.61399 6.91433 7.77276 6.96249 7.9078 7.05273C8.04285 7.14296 8.1481 7.27121 8.21025 7.42127C8.27241 7.57132 8.28867 7.73643 8.25698 7.89573C8.2253 8.05502 8.14709 8.20135 8.03224 8.31619C7.9174 8.43104 7.77107 8.50925 7.61178 8.54094C7.45248 8.57262 7.28737 8.55636 7.13731 8.4942C6.98726 8.43205 6.85901 8.3268 6.76877 8.19175C6.67854 8.05671 6.63038 7.89794 6.63038 7.73552C6.63062 7.5178 6.71722 7.30907 6.87117 7.15512C7.02512 7.00117 7.23385 6.91457 7.45157 6.91433Z" fill="#317750" stroke="#317750" stroke-width="0.2"/>
<path d="M12.2646 11.1139C11.9808 11.1139 11.7035 11.198 11.4676 11.3556C11.2317 11.5133 11.0478 11.7373 10.9393 11.9994C10.8307 12.2616 10.8023 12.55 10.8577 12.8283C10.913 13.1065 11.0497 13.3621 11.2503 13.5627C11.4509 13.7634 11.7065 13.9 11.9848 13.9553C12.2631 14.0106 12.5515 13.9822 12.8136 13.8736C13.0757 13.765 13.2998 13.5811 13.4574 13.3452C13.615 13.1093 13.6991 12.8319 13.699 12.5482C13.6986 12.1679 13.5473 11.8033 13.2784 11.5344C13.0095 11.2655 12.6449 11.1143 12.2646 11.1139ZM12.2646 13.3694C12.1021 13.3694 11.9434 13.3212 11.8083 13.231C11.6733 13.1408 11.568 13.0125 11.5059 12.8625C11.4437 12.7124 11.4275 12.5473 11.4591 12.388C11.4908 12.2287 11.569 12.0824 11.6839 11.9675C11.7987 11.8527 11.9451 11.7745 12.1044 11.7428C12.2636 11.7111 12.4288 11.7274 12.5788 11.7895C12.7289 11.8517 12.8571 11.9569 12.9474 12.092C13.0376 12.227 13.0858 12.3858 13.0858 12.5482C13.0855 12.7659 12.9989 12.9747 12.845 13.1286C12.691 13.2826 12.4823 13.3692 12.2646 13.3694Z" fill="#317750" stroke="#317750" stroke-width="0.2"/>
<path d="M17.899 11.3879C18.5784 10.8934 19 10.4888 19 10C19 9.51121 18.5788 9.10659 17.8995 8.61213C17.579 8.37893 17.3015 8.17762 17.2687 8.0525C17.2359 7.92739 17.3742 7.61462 17.535 7.25247C17.8763 6.48448 18.0387 5.92348 17.7943 5.50015C17.5499 5.07683 16.9829 4.93716 16.1471 4.84869C15.7526 4.80698 15.4123 4.77172 15.3203 4.67973C15.2283 4.58773 15.193 4.24736 15.1516 3.85332C15.0632 3.01756 14.9233 2.45058 14.5002 2.20618C14.077 1.96179 13.516 2.12416 12.7478 2.46545C12.3858 2.62629 12.0732 2.7652 11.9478 2.73177C11.8224 2.69835 11.6214 2.42145 11.3882 2.10101C10.8934 1.42164 10.4888 1 10 1C9.51121 1 9.10659 1.42118 8.61213 2.10055C8.37893 2.42099 8.17762 2.6985 8.0525 2.73131C7.92739 2.76412 7.61446 2.62583 7.25247 2.46499C6.48433 2.1237 5.92348 1.96118 5.50015 2.20572C5.07683 2.45027 4.93716 3.01756 4.84838 3.85332C4.80698 4.24736 4.77172 4.58773 4.67973 4.67973C4.58773 4.77172 4.24736 4.80698 3.85332 4.84838C3.01756 4.93685 2.45058 5.07668 2.20618 5.49985C1.96179 5.92302 2.12416 6.48417 2.46545 7.25216C2.62629 7.61431 2.7652 7.92678 2.73177 8.0522C2.69835 8.17762 2.42145 8.37862 2.10101 8.61182C1.42164 9.10659 1 9.51121 1 10C1 10.4888 1.42118 10.8934 2.10055 11.3879C2.42099 11.6209 2.6985 11.8224 2.73131 11.9475C2.76412 12.0726 2.62583 12.3855 2.46499 12.7475C2.1237 13.5155 1.96133 14.0765 2.20572 14.4998C2.45012 14.9232 3.0171 15.0628 3.85286 15.1515C4.2469 15.193 4.58727 15.229 4.67881 15.3201C4.77034 15.4112 4.80652 15.752 4.84823 16.1462C4.9367 16.9818 5.07652 17.5488 5.49969 17.7932C5.92286 18.0376 6.48402 17.8751 7.26412 17.5286C7.62136 17.3697 7.92954 17.2327 8.05266 17.2656C8.17578 17.2986 8.37371 17.5723 8.61167 17.8984C9.10659 18.5784 9.51121 19 10 19C10.4888 19 10.8934 18.5788 11.3879 17.8995C11.6211 17.579 11.8224 17.3015 11.9475 17.2685C12.0726 17.2356 12.3854 17.3742 12.7475 17.5352C13.5154 17.8762 14.0762 18.039 14.4998 17.7943C14.9235 17.5496 15.0628 16.9829 15.1513 16.1473C15.193 15.7531 15.229 15.4127 15.3207 15.3212C15.4124 15.2297 15.7526 15.1935 16.1467 15.1525C16.9824 15.0639 17.5494 14.9239 17.7938 14.5009C18.0382 14.0779 17.8758 13.5166 17.5345 12.7486C17.3737 12.3866 17.2348 12.074 17.2682 11.9486C17.3017 11.8232 17.5786 11.6209 17.899 11.3879ZM16.9742 12.9967C17.1569 13.4082 17.3858 13.9799 17.2627 14.1926C17.1396 14.4052 16.53 14.4936 16.0821 14.5408C14.8192 14.6745 14.6752 14.8186 14.5416 16.0815C14.4942 16.5294 14.4063 17.1394 14.1932 17.2621C13.9801 17.3848 13.408 17.1563 12.9965 16.9734C11.8363 16.4581 11.6395 16.5104 10.8919 17.5375C10.6269 17.9022 10.2462 18.3867 10 18.3867C9.75377 18.3867 9.37307 17.9027 9.10031 17.5281C8.65567 16.9162 8.40729 16.6542 8.02705 16.6542C7.77545 16.6542 7.46589 16.7698 7.00286 16.9752C6.59135 17.1581 6.01961 17.3874 5.80695 17.2639C5.59429 17.1405 5.50598 16.5312 5.4586 16.0834C5.32491 14.8204 5.18094 14.6763 3.91802 14.5426C3.47017 14.4954 2.8601 14.4075 2.73744 14.1944C2.61479 13.9813 2.84324 13.4094 3.026 12.9985C3.54162 11.8379 3.48903 11.641 2.46208 10.8937C2.09779 10.6269 1.61329 10.2462 1.61329 10C1.61329 9.75377 2.09733 9.37307 2.46147 9.10813C3.48872 8.36084 3.54101 8.16412 3.02538 7.00348C2.84262 6.59181 2.61371 6.02007 2.73683 5.80756C2.85995 5.59506 3.46956 5.50659 3.91741 5.45922C5.18032 5.32552 5.32429 5.18155 5.45799 3.91864C5.50537 3.47078 5.59322 2.86072 5.80634 2.73806C6.01945 2.6154 6.59135 2.84385 7.00302 3.02661C8.16351 3.54239 8.36022 3.4898 9.10767 2.46269C9.37307 2.09779 9.75377 1.61329 10 1.61329C10.2462 1.61329 10.6269 2.09733 10.8919 2.46147C11.6393 3.48872 11.836 3.54131 12.9965 3.02538C13.4082 2.84247 13.9799 2.61402 14.1932 2.73683C14.4065 2.85964 14.4942 3.46956 14.5416 3.91741C14.6752 5.18032 14.8192 5.32429 16.0821 5.45799C16.53 5.50537 17.1401 5.59322 17.2627 5.80634C17.3854 6.01945 17.1569 6.59135 16.9742 7.00302C16.4585 8.16366 16.5111 8.36038 17.5381 9.10767C17.9022 9.37307 18.3867 9.75377 18.3867 10C18.3867 10.2462 17.9027 10.6269 17.5385 10.8919C16.5111 11.6392 16.4585 11.836 16.9742 12.9967Z" fill="#317750" stroke="#317750" stroke-width="0.2"/>
</svg>
