<svg width="80" height="80" viewBox="0 0 80 80" fill="none" xmlns="http://www.w3.org/2000/svg">
<rect x="0.625" y="0.625" width="78.75" height="78.75" rx="39.375" fill="white"/>
<rect x="0.625" y="0.625" width="78.75" height="78.75" rx="39.375" stroke="#DDDDDD" stroke-width="1.25"/>
<path d="M34.6239 57.0405C34.6805 57.0405 35.7368 57.0124 37.2099 56.9681C41.1706 57.0134 44.6295 57.0406 44.7094 57.0406H58.9971C59.32 57.0406 59.5833 56.7774 59.5832 56.4544C59.5832 56.4543 59.5832 56.4543 59.5832 56.4543V22.8361C59.5832 22.5132 59.3201 22.25 58.9971 22.25H20.3361C20.0132 22.25 19.75 22.5131 19.75 22.8361V56.4544C19.75 56.7773 20.0131 57.0405 20.3361 57.0405H34.6239ZM44.7094 55.8683C44.6715 55.8683 43.8729 55.8744 42.6208 55.8857C42.0562 55.881 41.4697 55.8773 40.8825 55.8745C38.0772 55.8611 35.2522 55.8669 34.7135 55.868C34.6624 55.8682 34.6319 55.8682 34.6239 55.8682H20.9224V23.4224H58.411V55.8683H44.7094Z" fill="#1076BC" stroke="#1076BC" stroke-width="0.5"/>
<path d="M42.8422 41.3422C42.8422 41.1652 42.7031 41.0266 42.5266 41.0266H37.474C37.297 41.0266 37.1584 41.1658 37.1584 41.3422C37.1584 41.5193 37.2976 41.6578 37.474 41.6578H39.3688C40.1333 41.6578 40.771 42.2008 40.9161 42.9208H37.474C37.297 42.9208 37.1584 43.06 37.1584 43.2364C37.1584 43.4135 37.2976 43.552 37.474 43.552H40.9161C40.771 44.272 40.1327 44.815 39.3688 44.815H38.737C38.4972 44.815 38.2823 44.9476 38.1751 45.1626C38.0679 45.3775 38.0928 45.6298 38.232 45.8258L39.7478 47.8467C39.8112 47.929 39.9059 47.9728 40.0006 47.9728C40.064 47.9728 40.1333 47.9539 40.1901 47.9094C40.3293 47.8023 40.3607 47.6063 40.2535 47.4671L38.7376 45.4462H39.3694C40.4809 45.4462 41.3904 44.619 41.5485 43.5514H42.5272C42.7043 43.5514 42.8428 43.4123 42.8428 43.2358C42.8428 43.0588 42.7037 42.9202 42.5272 42.9202H41.5485C41.4792 42.4276 41.2518 41.9852 40.9108 41.6572H42.5279C42.7049 41.6572 42.8435 41.5181 42.8435 41.3416L42.8422 41.3422Z" fill="#1076BC" stroke="#1076BC" stroke-width="0.4"/>
<path d="M40 38.5C36.6906 38.5 34 41.1906 34 44.5C34 47.8094 36.6906 50.5 40 50.5C43.3094 50.5 46 47.8094 46 44.5C46 41.1906 43.3094 38.5 40 38.5ZM40 49.8688C37.0376 49.8688 34.6312 47.4624 34.6312 44.5C34.6312 41.5376 37.0376 39.1312 40 39.1312C42.9624 39.1312 45.3688 41.5376 45.3688 44.5C45.3688 47.4624 42.9624 49.8688 40 49.8688Z" fill="#1076BC" stroke="#1076BC" stroke-width="0.6"/>
<path d="M44.2924 33.3288L39.6668 28.7112L35.036 33.342C34.874 33.504 34.6172 33.5612 34.3966 33.473L44.2924 33.3288ZM44.2924 33.3288C44.4069 33.4548 44.57 33.5078 44.7094 33.5078C44.7854 33.5078 44.8589 33.4925 44.9284 33.4645M44.2924 33.3288L44.9284 33.4645M44.9284 33.4645C44.9283 33.4646 44.9282 33.4646 44.9281 33.4647L44.8352 33.2326L44.9284 33.4645ZM44.9284 33.4645C45.1502 33.3756 45.2953 33.1571 45.2953 32.9216V22.8361C45.2953 22.5132 45.0322 22.25 44.7092 22.25C44.3863 22.25 44.1231 22.5131 44.1231 22.8361V31.5028L40.0786 27.4583C39.8465 27.2263 39.4781 27.2263 39.246 27.4583L39.4228 27.6351M44.9284 33.4645L39.4228 27.6351M39.4228 27.6351L39.246 27.4583L35.2016 31.5028V22.8361C35.2016 22.5132 34.9384 22.25 34.6154 22.25C34.2925 22.25 34.0293 22.5131 34.0293 22.8361V32.9299C34.0293 33.1654 34.1744 33.3842 34.3965 33.473L39.4228 27.6351Z" fill="#1076BC" stroke="#1076BC" stroke-width="0.5"/>
</svg>
