<svg width="18" height="19" viewBox="0 0 18 19" fill="none" xmlns="http://www.w3.org/2000/svg">
<path d="M10.8503 10.919C12.4141 10.2267 13.5056 8.69133 13.5056 6.90732C13.5056 4.47733 11.484 2.5 9.00068 2.5C6.51684 2.5 4.49575 4.47706 4.49575 6.90732C4.49575 8.6916 5.587 10.2269 7.14998 10.919C4.74427 11.6837 3 13.8956 3 16.5H3.93229C3.93229 13.7673 6.20544 11.5444 9.00041 11.5444C11.7946 11.5444 14.0688 13.7683 14.0688 16.5H15C15.0003 13.8953 13.2563 11.6837 10.8503 10.919ZM5.42776 6.90732C5.42776 4.98005 7.03049 3.41224 9.00041 3.41224C10.9703 3.41224 12.5731 4.98031 12.5731 6.90732C12.5731 8.83406 10.9706 10.4005 9.00041 10.4005C7.03021 10.4005 5.42776 8.83406 5.42776 6.90732Z" fill="#317750"/>
</svg>
