<svg width="18" height="19" viewBox="0 0 18 19" fill="none" xmlns="http://www.w3.org/2000/svg">
<path d="M10.7765 12.4908L10.5227 13.2512C8.02075 12.3366 6.10573 10.4398 5.21949 8.00046L5.51679 7.90053C6.14064 7.69115 6.48796 7.00591 6.29165 6.37302L5.19968 2.8602C5.09963 2.53757 4.87785 2.2768 4.57677 2.12737C4.2757 1.97795 3.93689 1.95892 3.62165 2.07598C2.35318 2.54423 1.5 3.73199 1.5 5.03013C1.5 8.2328 2.73921 11.243 4.98841 13.5052C7.22993 15.7598 10.2058 17 13.3695 17H13.4025C15.1108 16.9952 16.5 15.5791 16.5 13.8431C16.5 13.8032 16.5 13.7622 16.4972 13.7308C16.4962 13.6956 16.4943 13.6604 16.4924 13.6261C16.4585 13.0922 16.0696 12.6354 15.5468 12.5164L12.1707 11.7474C11.5903 11.6152 11.006 11.9216 10.7748 12.4888L10.7765 12.4908ZM16.0599 13.6566C16.0618 13.6861 16.0627 13.7156 16.0646 13.7537C16.0665 13.7842 16.0665 13.8146 16.0665 13.8451C16.0665 15.3402 14.8717 16.5595 13.4032 16.5631H13.3711C10.3227 16.5631 7.45642 15.3678 5.29689 13.197C3.12991 11.0175 1.93605 8.11754 1.93605 5.03207C1.93605 3.91665 2.6741 2.8945 3.77175 2.48894C3.85953 2.45658 3.95013 2.4404 4.0398 2.4404C4.15777 2.4404 4.2748 2.468 4.38429 2.52225C4.57777 2.61837 4.72028 2.78587 4.78445 2.9924L5.87642 6.50523C6.00289 6.91162 5.78015 7.35132 5.37903 7.48549L4.8722 7.65585C4.81746 7.67394 4.77216 7.71391 4.74668 7.76625C4.72119 7.8186 4.71648 7.87856 4.73535 7.93376C5.65273 10.6708 7.78668 12.7866 10.5896 13.7392C10.6444 13.7583 10.7038 13.7535 10.7557 13.7278C10.8077 13.7021 10.8464 13.6564 10.8652 13.6012L11.1842 12.6438C11.3296 12.2879 11.7043 12.0918 12.0771 12.1765L15.4531 12.9455C15.7891 13.0216 16.0392 13.3138 16.0609 13.6555L16.0599 13.6566Z" fill="#317750" stroke="#317750" stroke-width="0.3"/>
</svg>
