<svg width="18" height="19" viewBox="0 0 18 19" fill="none" xmlns="http://www.w3.org/2000/svg">
<rect x="0.5" y="1" width="17" height="17" rx="8.5" stroke="#317750"/>
<path d="M12.9983 4.95435C12.9983 4.69946 12.8025 4.5 12.5542 4.5H5.44411C5.19497 4.5 5 4.70032 5 4.95435C5 5.20923 5.19581 5.40869 5.44411 5.40869H8.1105C9.18622 5.40869 10.0836 6.19038 10.2878 7.22695H5.44411C5.19497 7.22695 5 7.42728 5 7.6813C5 7.93619 5.19581 8.13565 5.44411 8.13565H10.2878C10.0836 9.17222 9.18537 9.95391 8.1105 9.95391H7.22142C6.88396 9.95391 6.58149 10.1449 6.43067 10.4543C6.27986 10.7637 6.31485 11.1269 6.51067 11.409L8.64377 14.3184C8.73293 14.4369 8.86626 14.5 8.99958 14.5C9.08873 14.5 9.18622 14.4727 9.26621 14.4088C9.46203 14.2545 9.50619 13.9723 9.35537 13.772L7.22226 10.8626H8.11134C9.67534 10.8626 10.9552 9.67175 11.1777 8.13479H12.555C12.8042 8.13479 12.9991 7.93446 12.9991 7.68044C12.9991 7.42555 12.8033 7.22609 12.555 7.22609H11.1777C11.0802 6.51686 10.7602 5.88007 10.2803 5.40783H12.5559C12.805 5.40783 13 5.20751 13 4.95349L12.9983 4.95435Z" fill="#317750"/>
</svg>
