<svg width="20" height="19" viewBox="0 0 20 19" fill="none" xmlns="http://www.w3.org/2000/svg">
<path d="M18.999 10.6463C18.9983 10.6287 18.9959 10.6113 18.9921 10.5939C18.9908 10.5879 18.9899 10.5819 18.9881 10.5761C18.9816 10.5545 18.9736 10.5331 18.9618 10.5126C18.95 10.492 18.9355 10.4742 18.92 10.4579C18.9157 10.4535 18.911 10.4497 18.9066 10.4454C18.8935 10.4332 18.8794 10.4223 18.8643 10.4129C18.8612 10.4109 18.8587 10.408 18.8554 10.4062L14.5584 7.92262V3.25756C14.5584 3.25354 14.5571 3.24997 14.5569 3.24596C14.5562 3.22835 14.5538 3.21096 14.55 3.19356C14.5486 3.18754 14.5478 3.18152 14.546 3.17573C14.5395 3.1541 14.5315 3.1327 14.5197 3.11218C14.5079 3.09167 14.4934 3.07383 14.4778 3.05756C14.4736 3.0531 14.4689 3.04931 14.4645 3.04529C14.4511 3.03303 14.4371 3.02211 14.4222 3.01274C14.419 3.01073 14.4166 3.00784 14.4135 3.00605L10.1455 0.538963C10.0557 0.487012 9.94506 0.487012 9.85508 0.538963L5.58733 3.00583C5.58422 3.00761 5.58199 3.01029 5.57909 3.0123C5.56373 3.02188 5.54947 3.03303 5.53589 3.04552C5.53166 3.04953 5.5272 3.0531 5.52319 3.05733C5.5076 3.07383 5.49291 3.09167 5.4811 3.11218C5.4693 3.1327 5.46106 3.1541 5.45482 3.17573C5.45304 3.18152 5.45215 3.18754 5.45081 3.19356C5.44681 3.21096 5.44458 3.22835 5.44391 3.24596C5.44369 3.24997 5.44235 3.25354 5.44235 3.25756V7.92262L1.14521 10.4062C1.14209 10.408 1.13986 10.4109 1.13674 10.4127C1.12138 10.4223 1.10712 10.4332 1.09376 10.4457C1.08953 10.4497 1.08507 10.4533 1.08084 10.4575C1.06525 10.474 1.05055 10.4918 1.03875 10.5123C1.02695 10.5329 1.01871 10.5543 1.01247 10.5759C1.01069 10.5817 1.0098 10.5877 1.00846 10.5937C1.00445 10.6111 1.00223 10.6285 1.00156 10.6461C1.00134 10.6501 1 10.6537 1 10.6577V15.692C1 15.7959 1.05545 15.8918 1.14521 15.9437L5.50026 18.461C5.5036 18.463 5.50716 18.4634 5.51072 18.4652C5.52631 18.4735 5.54279 18.4802 5.55994 18.4855C5.56573 18.4873 5.5713 18.4895 5.57731 18.4909C5.59936 18.4962 5.62185 18.4998 5.64546 18.4998C5.66907 18.4998 5.69178 18.4962 5.71361 18.4909C5.7194 18.4895 5.72497 18.4873 5.73076 18.4855C5.74791 18.4802 5.76439 18.4735 5.77998 18.4652C5.78332 18.4634 5.7871 18.4628 5.79022 18.461L10.0003 16.028L14.2099 18.4612C14.2133 18.4632 14.2168 18.4637 14.2204 18.4654C14.236 18.4737 14.2524 18.4804 14.2696 18.4857C14.2754 18.4875 14.281 18.4897 14.287 18.4911C14.309 18.4964 14.3315 18.5 14.3551 18.5C14.3787 18.5 14.4014 18.4964 14.4233 18.4911C14.4291 18.4897 14.4346 18.4875 14.4404 18.4857C14.4576 18.4804 14.474 18.4737 14.4896 18.4654C14.493 18.4637 14.4968 18.463 14.4999 18.4612L18.8547 15.9439C18.9445 15.892 18.9999 15.7961 18.9999 15.6922V10.6579C19.0004 10.6539 18.999 10.6504 18.999 10.6463ZM14.3553 12.8394L10.5811 10.6579L14.3553 8.47624L18.1296 10.6579L14.3553 12.8394ZM9.7101 5.89209V10.1545L6.02295 8.02317V3.76078L9.7101 5.89209ZM13.9778 8.02317L10.2907 10.1545V5.89209L13.9778 3.76078V8.02317ZM5.64546 8.47624L9.41969 10.6579L5.64546 12.8394L1.87101 10.6579L5.64546 8.47624ZM5.93587 13.3429L9.7101 11.1614V15.5246L5.93587 17.706V13.3429ZM10.0003 1.12625L13.6874 3.25756L10.0003 5.38864L6.31314 3.25733L10.0003 1.12625ZM1.58082 11.1614L5.35527 13.3429V17.706L1.58082 15.5246V11.1614ZM10.2907 11.1614L14.0649 13.3429V17.706L10.2907 15.5246V11.1614ZM14.6455 17.706V13.3429L18.4198 11.1614V15.5246L14.6455 17.706Z" fill="#317750" stroke="#317750" stroke-width="0.2"/>
</svg>
