<svg width="30" height="30" viewBox="0 0 30 30" fill="none" xmlns="http://www.w3.org/2000/svg">
<path d="M25.1771 14.0614L21.217 17.85L22.1334 23.253C22.2321 23.8189 21.9991 24.3795 21.5267 24.7167C21.0543 25.0522 20.4403 25.097 19.9231 24.8297L15.0301 22.304C15.0118 22.295 14.989 22.295 14.9725 22.304L10.0785 24.8307C9.85285 24.9473 9.60888 25.0047 9.36765 25.0047C9.0524 25.0047 8.74083 24.9078 8.47311 24.7176C8.00072 24.3804 7.76863 23.8198 7.86823 23.2548L8.80206 17.9055L4.82364 14.0614C4.40514 13.6614 4.25803 13.073 4.43805 12.5277C4.61897 11.9823 5.09047 11.5922 5.66793 11.5097L11.1411 10.7294L13.6346 5.82946C13.8923 5.31552 14.4149 4.99533 14.9997 4.99533C15.5836 4.99533 16.1072 5.31463 16.3657 5.82946L18.8127 10.697L24.3308 11.5096C24.9092 11.5921 25.3816 11.9823 25.5616 12.5276C25.7425 13.0729 25.5945 13.6604 25.176 14.0604L25.1771 14.0614Z" fill="#F8B545"/>
</svg>
